<svg width="24" height="20" viewBox="0 0 24 20" fill="none" xmlns="http://www.w3.org/2000/svg">
<path d="M1 20V7.725C0.7 7.54167 0.458333 7.30417 0.275 7.0125C0.0916667 6.72083 0 6.38333 0 6C0 5.61667 0.2 5.15 0.6 4.6C1 4.05 1.46667 3.51667 2 3C2.53333 3.51667 3 4.05 3.4 4.6C3.8 5.15 4 5.61667 4 6C4 6.38333 3.90833 6.72083 3.725 7.0125C3.54167 7.30417 3.3 7.54167 3 7.725V12H5V10C5 9.58333 5.13333 9.18333 5.4 8.8C5.66667 8.41667 6.05 8.16667 6.55 8.05C6.36667 7.76667 6.22917 7.45833 6.1375 7.125C6.04583 6.79167 6 6.45 6 6.1C6 5.43333 6.15833 4.81667 6.475 4.25C6.79167 3.68333 7.21667 3.21667 7.75 2.85L12 0L16.25 2.85C16.7833 3.21667 17.2083 3.68333 17.525 4.25C17.8417 4.81667 18 5.43333 18 6.1C18 6.45 17.9542 6.79167 17.8625 7.125C17.7708 7.45833 17.6333 7.76667 17.45 8.05C17.95 8.16667 18.3333 8.41667 18.6 8.8C18.8667 9.18333 19 9.58333 19 10V12H21V7.725C20.7 7.54167 20.4583 7.30417 20.275 7.0125C20.0917 6.72083 20 6.38333 20 6C20 5.61667 20.2 5.15 20.6 4.6C21 4.05 21.4667 3.51667 22 3C22.5333 3.51667 23 4.05 23.4 4.6C23.8 5.15 24 5.61667 24 6C24 6.38333 23.9083 6.72083 23.725 7.0125C23.5417 7.30417 23.3 7.54167 23 7.725V20H13V16C13 15.7167 12.9042 15.4792 12.7125 15.2875C12.5208 15.0958 12.2833 15 12 15C11.7167 15 11.4792 15.0958 11.2875 15.2875C11.0958 15.4792 11 15.7167 11 16V20H1ZM9.9 8H14.1C14.6333 8 15.0833 7.81667 15.45 7.45C15.8167 7.08333 16 6.63333 16 6.1C16 5.76667 15.925 5.4625 15.775 5.1875C15.625 4.9125 15.4167 4.68333 15.15 4.5L12 2.4L8.85 4.5C8.58333 4.68333 8.375 4.9125 8.225 5.1875C8.075 5.4625 8 5.76667 8 6.1C8 6.63333 8.18333 7.08333 8.55 7.45C8.91667 7.81667 9.36667 8 9.9 8ZM3 18H9V16C9 15.1667 9.29167 14.4583 9.875 13.875C10.4583 13.2917 11.1667 13 12 13C12.8333 13 13.5417 13.2917 14.125 13.875C14.7083 14.4583 15 15.1667 15 16V18H21V14H17V10H7V14H3V18Z" fill="white"/>
</svg>
