<svg width="19" height="17" viewBox="0 0 19 17" fill="none" xmlns="http://www.w3.org/2000/svg">
<path d="M15 4.58333C15.2361 4.58333 15.434 4.50347 15.5938 4.34375C15.7535 4.18403 15.8333 3.98611 15.8333 3.75C15.8333 3.51389 15.7535 3.31597 15.5938 3.15625C15.434 2.99653 15.2361 2.91667 15 2.91667C14.7639 2.91667 14.566 2.99653 14.4062 3.15625C14.2465 3.31597 14.1667 3.51389 14.1667 3.75C14.1667 3.98611 14.2465 4.18403 14.4062 4.34375C14.566 4.50347 14.7639 4.58333 15 4.58333ZM11.6667 4.58333C11.9028 4.58333 12.1007 4.50347 12.2604 4.34375C12.4201 4.18403 12.5 3.98611 12.5 3.75C12.5 3.51389 12.4201 3.31597 12.2604 3.15625C12.1007 2.99653 11.9028 2.91667 11.6667 2.91667C11.4306 2.91667 11.2326 2.99653 11.0729 3.15625C10.9132 3.31597 10.8333 3.51389 10.8333 3.75C10.8333 3.98611 10.9132 4.18403 11.0729 4.34375C11.2326 4.50347 11.4306 4.58333 11.6667 4.58333ZM11.25 7.41667H15.4167C15.4167 6.93056 15.2049 6.54514 14.7812 6.26042C14.3576 5.97569 13.875 5.83333 13.3333 5.83333C12.7917 5.83333 12.309 5.97569 11.8854 6.26042C11.4618 6.54514 11.25 6.93056 11.25 7.41667ZM5 16.6667C3.61111 16.6667 2.43056 16.1806 1.45833 15.2083C0.486111 14.2361 0 13.0556 0 11.6667V5.83333H10V11.6667C10 13.0556 9.51389 14.2361 8.54167 15.2083C7.56944 16.1806 6.38889 16.6667 5 16.6667ZM5 15C5.91667 15 6.70139 14.6736 7.35417 14.0208C8.00694 13.3681 8.33333 12.5833 8.33333 11.6667V7.5H1.66667V11.6667C1.66667 12.5833 1.99306 13.3681 2.64583 14.0208C3.29861 14.6736 4.08333 15 5 15ZM13.3333 10.8333C12.9722 10.8333 12.6146 10.7951 12.2604 10.7188C11.9062 10.6424 11.5694 10.5278 11.25 10.375V8.41667C11.5556 8.65278 11.8854 8.83681 12.2396 8.96875C12.5938 9.10069 12.9583 9.16667 13.3333 9.16667C14.25 9.16667 15.0347 8.84028 15.6875 8.1875C16.3403 7.53472 16.6667 6.75 16.6667 5.83333V1.66667H10V4.58333H8.33333V0H18.3333V5.83333C18.3333 7.22222 17.8472 8.40278 16.875 9.375C15.9028 10.3472 14.7222 10.8333 13.3333 10.8333ZM3.33333 10.4167C3.56944 10.4167 3.76736 10.3368 3.92708 10.1771C4.08681 10.0174 4.16667 9.81944 4.16667 9.58333C4.16667 9.34722 4.08681 9.14931 3.92708 8.98958C3.76736 8.82986 3.56944 8.75 3.33333 8.75C3.09722 8.75 2.89931 8.82986 2.73958 8.98958C2.57986 9.14931 2.5 9.34722 2.5 9.58333C2.5 9.81944 2.57986 10.0174 2.73958 10.1771C2.89931 10.3368 3.09722 10.4167 3.33333 10.4167ZM6.66667 10.4167C6.90278 10.4167 7.10069 10.3368 7.26042 10.1771C7.42014 10.0174 7.5 9.81944 7.5 9.58333C7.5 9.34722 7.42014 9.14931 7.26042 8.98958C7.10069 8.82986 6.90278 8.75 6.66667 8.75C6.43056 8.75 6.23264 8.82986 6.07292 8.98958C5.91319 9.14931 5.83333 9.34722 5.83333 9.58333C5.83333 9.81944 5.91319 10.0174 6.07292 10.1771C6.23264 10.3368 6.43056 10.4167 6.66667 10.4167ZM5 13.25C5.54167 13.25 6.02431 13.1076 6.44792 12.8229C6.87153 12.5382 7.08333 12.1528 7.08333 11.6667H2.91667C2.91667 12.1528 3.12847 12.5382 3.55208 12.8229C3.97569 13.1076 4.45833 13.25 5 13.25Z" fill="white"/>
</svg>
